<?xml version="1.0" standalone="no"?>
<!DOCTYPE svg PUBLIC "-//W3C//DTD SVG 20010904//EN"
 "http://www.w3.org/TR/2001/REC-SVG-20010904/DTD/svg10.dtd">
<svg version="1.0" xmlns="http://www.w3.org/2000/svg"
 width="625.000000pt" height="625.000000pt" viewBox="0 0 625.000000 625.000000"
 preserveAspectRatio="xMidYMid meet">
<metadata>
Created by potrace 1.11, written by Peter Selinger 2001-2013
</metadata>
<g transform="translate(0.000000,625.000000) scale(0.100000,-0.100000)"
fill="#000000" stroke="none">
<path d="M0 3125 l0 -3125 3125 0 3125 0 0 3125 0 3125 -3125 0 -3125 0 0
-3125z m4924 940 c49 -9 141 -32 205 -51 130 -40 334 -132 327 -148 -105 -260
-179 -441 -180 -443 -1 -1 -54 20 -118 48 -64 28 -170 64 -235 81 -109 29
-131 32 -288 32 -155 1 -174 -1 -218 -21 -81 -37 -100 -128 -39 -185 43 -41
117 -73 349 -152 392 -134 543 -211 652 -332 105 -118 142 -226 142 -409 0
-176 -39 -299 -131 -413 -256 -318 -995 -359 -1547 -87 -61 31 -115 61 -121
68 -7 8 19 77 85 227 52 118 96 216 98 218 2 2 40 -15 85 -38 107 -54 290
-115 410 -136 141 -26 388 -25 455 2 66 26 95 69 95 140 0 42 -5 59 -26 83
-37 45 -143 91 -350 155 -390 120 -565 209 -678 344 -141 170 -167 463 -60
680 91 185 293 306 577 347 127 18 386 13 511 -10z m-3696 -192 c22 -93 87
-367 143 -610 57 -244 106 -443 109 -443 3 0 72 253 155 563 82 309 155 583
163 610 l14 47 241 0 242 0 160 -606 c87 -333 162 -607 165 -609 3 -2 71 270
150 606 l144 609 288 0 287 0 -9 -27 c-5 -16 -145 -500 -310 -1078 -166 -577
-303 -1058 -306 -1067 -5 -17 -26 -18 -248 -18 l-242 0 -164 650 c-91 357
-167 644 -169 638 -2 -5 -76 -297 -165 -647 l-162 -636 -244 0 -244 0 -313
1085 c-172 597 -312 1088 -313 1093 0 4 132 7 294 7 l294 0 40 -167z"/>
</g>
</svg>
